<mxfile host="app.diagrams.net" modified="2023-06-28T06:51:14.584Z" agent="Mozilla/5.0 (Windows NT 10.0; Win64; x64) AppleWebKit/537.36 (KHTML, like Gecko) Chrome/114.0.0.0 Safari/537.36" version="21.5.1" etag="f5d790jxWlNddZ5YeSth" type="github">
  <diagram name="Page-1" id="N9UaEHnvZd7D1azrjLMg">
    <mxGraphModel>
      <root>
        <mxCell id="0" />
        <mxCell id="1" parent="0" />
      </root>
    </mxGraphModel>
  </diagram>
</mxfile>
